<svg width="138" height="24" viewBox="0 0 138 24" fill="none" xmlns="http://www.w3.org/2000/svg">
<g clip-path="url(#clip0_194_76)">
<path d="M0 0.379898V23.2117H18.6163C20.4998 23.2117 22.0274 21.6826 22.0274 19.7974V0.379898H0ZM10.9022 12.4226L8.26444 9.39296L6.65615 11.093L8.99031 13.5576L4.70627 18.0831L3.33045 16.63L6.19596 13.6003L3.94245 11.2165L6.92183 8.06332L1.91667 2.24139H19.9542L10.8975 12.4274L10.9022 12.4226Z" fill="black"/>
<path d="M38.9311 3.98891C38.8125 4.17886 38.6892 4.32132 38.5563 4.4163C38.4283 4.51127 38.2575 4.55876 38.0535 4.55876C37.8732 4.55876 37.6739 4.50178 37.4652 4.38781C37.2564 4.27384 37.0192 4.14562 36.7535 4.00316C36.4879 3.8607 36.1842 3.73248 35.8474 3.61851C35.5058 3.50455 35.1215 3.44756 34.6851 3.44756C33.9355 3.44756 33.3757 3.60902 33.0103 3.92718C32.645 4.24535 32.46 4.68223 32.46 5.22833C32.46 5.57499 32.5691 5.86466 32.7921 6.09259C33.0151 6.32053 33.3045 6.51998 33.665 6.68618C34.0256 6.85239 34.4336 7.00435 34.8985 7.14206C35.3635 7.27977 35.8332 7.43648 36.3171 7.60743C36.7962 7.77839 37.2707 7.97784 37.7356 8.20577C38.2005 8.43371 38.6085 8.72813 38.9691 9.08428C39.3297 9.44044 39.6191 9.87257 39.842 10.3807C40.065 10.8935 40.1741 11.5061 40.1741 12.2279C40.1741 13.0257 40.0365 13.776 39.7614 14.4693C39.4862 15.1626 39.083 15.7752 38.5563 16.2928C38.0297 16.8104 37.3845 17.2188 36.6112 17.5133C35.8379 17.8077 34.965 17.9596 33.9829 17.9596C33.4468 17.9596 32.8965 17.9074 32.3414 17.7934C31.7863 17.6842 31.2455 17.5275 30.7236 17.3281C30.2018 17.1239 29.7131 16.8864 29.2529 16.611C28.7927 16.3356 28.3942 16.0269 28.0574 15.685L29.2434 13.8093C29.3383 13.6763 29.4617 13.5623 29.6182 13.4721C29.7748 13.3819 29.9408 13.3344 30.1211 13.3344C30.3583 13.3344 30.5955 13.4104 30.8375 13.5623C31.0794 13.7143 31.3499 13.8805 31.6535 14.0609C31.9571 14.2414 32.3082 14.4076 32.702 14.5596C33.0957 14.7115 33.5654 14.7875 34.1015 14.7875C34.8274 14.7875 35.3919 14.626 35.7952 14.3079C36.1985 13.9897 36.4025 13.4816 36.4025 12.7835C36.4025 12.3799 36.2934 12.0522 36.0704 11.8005C35.8474 11.5489 35.558 11.3399 35.1974 11.1737C34.8369 11.0075 34.4289 10.8603 33.9687 10.7321C33.5085 10.6086 33.0388 10.4662 32.5596 10.3095C32.0757 10.1527 31.6061 9.96755 31.1459 9.73961C30.6857 9.51642 30.2777 9.21725 29.9171 8.8516C29.5565 8.4812 29.2672 8.02532 29.0442 7.47447C28.8212 6.92362 28.7121 6.24455 28.7121 5.43727C28.7121 4.7867 28.8402 4.15512 29.1058 3.53779C29.3668 2.92045 29.7511 2.3696 30.254 1.88998C30.7616 1.40561 31.3783 1.02097 32.1137 0.731297C32.849 0.441625 33.6888 0.299164 34.6376 0.299164C35.169 0.299164 35.6813 0.341902 36.1842 0.42263C36.6871 0.503359 37.1615 0.631574 37.6122 0.79303C38.0629 0.954486 38.4852 1.14918 38.8742 1.37237C39.268 1.60031 39.6143 1.85199 39.9227 2.13692L38.9264 3.99841L38.9311 3.98891Z" fill="black"/>
<path d="M51.6219 7.2133C51.6219 7.46498 51.5792 7.71192 51.4938 7.94935C51.4084 8.18679 51.2898 8.38148 51.1523 8.53344L46.019 14.759H49.9472C50.8059 14.759 51.5033 15.4571 51.5033 16.3166V17.7649H41.7824V15.9889C41.7824 15.837 41.8204 15.647 41.901 15.4191C41.9817 15.1911 42.1003 14.9774 42.2568 14.778L47.4375 8.47171H43.6706C42.8119 8.47171 42.1145 7.77365 42.1145 6.91413V5.46577H51.6219V7.21805V7.2133Z" fill="black"/>
<path d="M54.013 7.16581C54.7579 6.51049 55.5786 6.02137 56.4848 5.70321C57.3909 5.38504 58.3587 5.22359 59.393 5.22359C60.1378 5.22359 60.8068 5.3423 61.4045 5.58449C62.0023 5.82667 62.5052 6.16383 62.9227 6.59122C63.3354 7.02335 63.658 7.53621 63.8763 8.1298C64.0945 8.72339 64.2084 9.37396 64.2084 10.0768V17.7649H62.5242C62.1778 17.7649 61.9122 17.7175 61.7366 17.6225C61.5611 17.5275 61.4093 17.3328 61.2907 17.0289L61.0297 16.3546C60.7214 16.6158 60.4225 16.8437 60.1426 17.0431C59.8579 17.2426 59.5638 17.4088 59.2601 17.5465C58.9565 17.6842 58.6339 17.7887 58.2876 17.8552C57.946 17.9216 57.5617 17.9549 57.1442 17.9549C56.5844 17.9549 56.072 17.8837 55.6118 17.7364C55.1516 17.5892 54.7626 17.3755 54.4448 17.0906C54.1222 16.8057 53.8754 16.4495 53.7047 16.0269C53.5339 15.6043 53.4437 15.1152 53.4437 14.5596C53.4437 14.1179 53.5528 13.6668 53.7758 13.2157C53.9988 12.7598 54.3831 12.3467 54.9239 11.9715C55.4695 11.5964 56.2049 11.2782 57.13 11.0265C58.0551 10.7748 59.2222 10.6324 60.6265 10.5991V10.0768C60.6265 9.35497 60.4794 8.83736 60.1805 8.51445C59.8816 8.19153 59.4642 8.03483 58.9186 8.03483C58.4821 8.03483 58.1263 8.08231 57.8511 8.17729C57.5759 8.27226 57.3292 8.37673 57.111 8.5002C56.8928 8.61892 56.684 8.72339 56.4753 8.81836C56.2665 8.91334 56.0246 8.96083 55.7399 8.96083C55.4885 8.96083 55.275 8.89909 55.0995 8.77088C54.9239 8.64266 54.7816 8.49545 54.6725 8.31975L54.0083 7.17056L54.013 7.16581ZM60.6265 12.755C59.8911 12.7883 59.2886 12.85 58.8142 12.945C58.3398 13.04 57.965 13.1587 57.6898 13.3011C57.4146 13.4436 57.2201 13.6051 57.1158 13.7855C57.0114 13.966 56.9545 14.1654 56.9545 14.3791C56.9545 14.797 57.0683 15.0914 57.296 15.2624C57.5238 15.4333 57.8606 15.5188 58.3066 15.5188C58.781 15.5188 59.1937 15.4381 59.5495 15.2719C59.9054 15.1057 60.2659 14.835 60.6265 14.4646V12.755Z" fill="black"/>
<path d="M71.0685 5.46101V18.0688C71.0685 18.6482 70.9974 19.9446 70.8503 20.4527C70.7032 20.9608 70.4613 21.4119 70.1292 21.7918C69.7923 22.1765 69.3511 22.4804 68.8008 22.6988C68.2505 22.922 67.572 23.0313 66.756 23.0313C66.4572 23.0313 66.1772 23.0123 65.9211 22.979C65.6649 22.941 65.3992 22.8888 65.1193 22.8176L65.2379 20.1298C65.2521 19.9636 65.309 19.8401 65.4039 19.7641C65.4988 19.6882 65.6886 19.6454 65.9732 19.6454C66.2579 19.6454 66.4904 19.6217 66.6706 19.5742C66.8509 19.5267 66.998 19.4412 67.1024 19.3273C67.2115 19.2085 67.2826 19.0471 67.3301 18.8476C67.3728 18.6434 67.3965 18.387 67.3965 18.0688V7.26553C67.3965 6.2683 68.203 5.46101 69.1993 5.46101H71.0685Z" fill="black"/>
<path d="M80.0588 5.27107C80.9887 5.27107 81.8427 5.41828 82.6065 5.7127C83.3703 6.00237 84.0298 6.42501 84.5801 6.97111C85.1304 7.51721 85.5574 8.18203 85.861 8.96082C86.1647 9.73961 86.3165 10.6181 86.3165 11.5916C86.3165 12.5651 86.1647 13.4579 85.861 14.2414C85.5574 15.0297 85.1304 15.6992 84.5801 16.2453C84.0298 16.7962 83.3703 17.2188 82.6065 17.518C81.8379 17.8172 80.9887 17.9644 80.0588 17.9644C79.129 17.9644 78.2608 17.8172 77.4922 17.518C76.7237 17.2188 76.0595 16.7962 75.4996 16.2453C74.9446 15.6945 74.5128 15.0297 74.2092 14.2414C73.9056 13.4531 73.7538 12.5698 73.7538 11.5916C73.7538 10.6134 73.9056 9.74436 74.2092 8.96082C74.5128 8.18203 74.9446 7.52196 75.4996 6.97111C76.0595 6.42501 76.7189 6.00712 77.4922 5.7127C78.2608 5.41828 79.1195 5.27107 80.0588 5.27107ZM80.0588 15.2244C80.9033 15.2244 81.5296 14.9252 81.9281 14.3269C82.3266 13.7285 82.5258 12.8215 82.5258 11.6059C82.5258 10.3902 82.3266 9.48318 81.9281 8.88959C81.5296 8.296 80.9081 7.99683 80.0588 7.99683C79.2096 7.99683 78.5549 8.296 78.1517 8.88959C77.7484 9.48318 77.5444 10.3902 77.5444 11.6059C77.5444 12.8215 77.7484 13.7333 78.1517 14.3269C78.5549 14.9252 79.1906 15.2244 80.0588 15.2244Z" fill="black"/>
<path d="M106.788 5.46102L102.969 17.7649H99.9799C99.8233 17.7649 99.6857 17.7174 99.5766 17.6225C99.4675 17.5275 99.3773 17.3708 99.3157 17.1476L97.5603 11.0123C97.4702 10.7368 97.3942 10.4614 97.3278 10.1955C97.2614 9.92956 97.1997 9.65413 97.1428 9.37871C97.0859 9.65888 97.0242 9.93431 96.9578 10.2097C96.8914 10.4899 96.8155 10.7653 96.7253 11.0408L94.9462 17.1523C94.8276 17.5655 94.5667 17.7697 94.1634 17.7697H91.3169L87.4978 5.46577H90.4392C90.7001 5.46577 90.9184 5.5275 91.0987 5.65097C91.2742 5.77443 91.3975 5.92639 91.4592 6.10684L92.6927 11.6248C92.7971 12.0475 92.8872 12.4511 92.9631 12.8405C93.039 13.2299 93.115 13.6288 93.1766 14.0229C93.281 13.6288 93.3901 13.2347 93.504 12.8405C93.6178 12.4464 93.7412 12.0427 93.8788 11.6248L95.4207 6.09734C95.4823 5.91689 95.6009 5.76493 95.7765 5.64147C95.952 5.518 96.156 5.45627 96.3932 5.45627H98.03C98.2909 5.45627 98.5091 5.518 98.6894 5.64147C98.865 5.76493 98.9883 5.91689 99.05 6.09734L100.521 11.6248C100.639 12.0475 100.753 12.4511 100.872 12.8453C100.99 13.2394 101.09 13.6431 101.185 14.0467C101.247 13.6525 101.322 13.2537 101.408 12.8595C101.493 12.4654 101.593 12.0522 101.702 11.6248L103.007 6.10684C103.068 5.92639 103.187 5.77443 103.362 5.65097C103.538 5.5275 103.742 5.46577 103.979 5.46577H106.778L106.788 5.46102Z" fill="black"/>
<path d="M116.48 8.15354C116.385 8.30549 116.286 8.41471 116.177 8.47645C116.072 8.53818 115.935 8.57142 115.769 8.57142C115.603 8.57142 115.422 8.53343 115.247 8.45745C115.071 8.38147 114.886 8.30075 114.682 8.21527C114.483 8.12979 114.255 8.04906 113.999 7.97308C113.743 7.8971 113.458 7.85911 113.131 7.85911C112.666 7.85911 112.305 7.94934 112.059 8.12504C111.812 8.30075 111.689 8.54768 111.689 8.86584C111.689 9.09378 111.769 9.28373 111.931 9.43569C112.092 9.58765 112.305 9.71586 112.576 9.83458C112.846 9.94855 113.15 10.0578 113.487 10.1622C113.824 10.2667 114.175 10.3807 114.53 10.5041C114.886 10.6276 115.233 10.7796 115.574 10.9505C115.916 11.1215 116.219 11.3304 116.485 11.5821C116.751 11.8338 116.969 12.133 117.13 12.4891C117.292 12.8453 117.372 13.2726 117.372 13.7713C117.372 14.3838 117.263 14.9442 117.04 15.4571C116.817 15.9699 116.49 16.4163 116.049 16.7867C115.612 17.1571 115.066 17.4468 114.426 17.6557C113.781 17.8599 113.041 17.9644 112.201 17.9644C111.783 17.9644 111.361 17.9264 110.944 17.8457C110.526 17.7649 110.118 17.6605 109.729 17.5227C109.34 17.3898 108.975 17.2283 108.643 17.0431C108.311 16.8579 108.026 16.6585 107.789 16.4448L108.643 15.0914C108.738 14.9347 108.861 14.8112 109.003 14.721C109.15 14.6308 109.335 14.5833 109.563 14.5833C109.777 14.5833 109.966 14.6308 110.137 14.7258C110.308 14.8207 110.488 14.9205 110.688 15.0344C110.882 15.1436 111.115 15.2481 111.38 15.3431C111.646 15.4381 111.978 15.4855 112.381 15.4855C112.666 15.4855 112.908 15.4571 113.107 15.3953C113.306 15.3336 113.463 15.2529 113.582 15.1531C113.7 15.0534 113.786 14.9347 113.842 14.8112C113.899 14.6878 113.923 14.5548 113.923 14.4171C113.923 14.1702 113.842 13.9707 113.676 13.814C113.51 13.6573 113.292 13.5196 113.026 13.4056C112.761 13.2916 112.452 13.1824 112.106 13.0827C111.76 12.983 111.413 12.8738 111.058 12.7455C110.702 12.6173 110.355 12.4654 110.009 12.2897C109.663 12.114 109.359 11.886 109.089 11.6153C108.818 11.3447 108.605 11.0075 108.439 10.6134C108.273 10.2192 108.187 9.73961 108.187 9.17926C108.187 8.6569 108.287 8.15828 108.491 7.68816C108.695 7.21804 108.994 6.8049 109.397 6.444C109.8 6.08784 110.308 5.80767 110.915 5.59398C111.523 5.38503 112.234 5.28056 113.05 5.28056C113.491 5.28056 113.918 5.3233 114.336 5.39928C114.753 5.47526 115.142 5.58923 115.503 5.73169C115.868 5.87415 116.2 6.04036 116.499 6.23505C116.798 6.42975 117.064 6.6387 117.296 6.87138L116.466 8.16303L116.48 8.15354Z" fill="black"/>
<path d="M123.658 0V9.95805H124.204C124.432 9.95805 124.607 9.92481 124.726 9.85833C124.844 9.79185 124.963 9.67788 125.082 9.52117L127.406 6.05461C127.549 5.85991 127.71 5.70795 127.89 5.60823C128.07 5.50851 128.303 5.46102 128.592 5.46102H131.961L128.782 9.83933C128.483 10.2335 128.127 10.5611 127.715 10.8128C127.895 10.9458 128.061 11.1025 128.213 11.2782C128.365 11.4539 128.507 11.6581 128.64 11.8765L132.103 17.7602H128.782C128.507 17.7602 128.27 17.7127 128.07 17.6225C127.876 17.5322 127.71 17.3708 127.572 17.1429L125.248 12.7883C125.138 12.5888 125.02 12.4606 124.906 12.4036C124.787 12.3419 124.607 12.3134 124.37 12.3134H123.658V17.7602H119.982V1.55758C119.982 0.698061 120.679 0 121.538 0H123.658Z" fill="black"/>
<path d="M137.739 7.44123V17.7649H134.062V5.46101H135.761C136.852 5.46101 137.739 6.34902 137.739 7.44123Z" fill="black"/>
</g>
<defs>
<clipPath id="clip0_194_76">
<rect width="137.739" height="24" fill="white"/>
</clipPath>
</defs>
</svg>
